<svg width="89" height="84" viewBox="0 0 89 84" fill="none" xmlns="http://www.w3.org/2000/svg">
<g filter="url(#filter0_d_138_348)">
<path d="M10 25C10 13.9543 18.9543 5 30 5H59C70.0457 5 79 13.9543 79 25V49C79 60.0457 70.0457 69 59 69H30C18.9543 69 10 60.0457 10 49V25Z" fill="url(#paint0_linear_138_348)"/>
</g>
<path fill-rule="evenodd" clip-rule="evenodd" d="M59.5098 24.5405C59.5098 25.2413 59.2869 25.9514 58.7229 26.3673C57.9829 26.9128 57.0683 27.2353 56.0784 27.2353H53.9313C52.2745 27.2353 50.9313 25.8921 50.9313 24.2353V21.7451C50.9313 21.2312 51.0182 20.7375 51.1782 20.2781C51.4816 19.4063 52.4152 19 53.3384 19H56.5098C58.1667 19 59.5098 20.3431 59.5098 22V24.5405ZM56.0784 27.9216C57.53 27.9216 59.5098 28.9158 59.5098 30.3674V51C59.5098 52.6569 58.1667 54 56.5098 54H33C31.3431 54 30 52.6569 30 51V22C30 20.3431 31.3431 19 33 19H48.142C49.3987 19 50.2451 20.4883 50.2451 21.7451V24.9216C50.2451 26.5784 51.5882 27.9216 53.2451 27.9216H56.0784ZM32.0589 23.804C32.0589 23.4249 32.3662 23.1177 32.7452 23.1177H46.4707C46.8497 23.1177 47.1569 23.4249 47.1569 23.804C47.1569 24.183 46.8497 24.4902 46.4707 24.4902H32.7452C32.3662 24.4902 32.0589 24.183 32.0589 23.804ZM32.0589 27.2353C32.0589 26.8563 32.3662 26.5491 32.7452 26.5491H46.4707C46.8497 26.5491 47.1569 26.8563 47.1569 27.2353C47.1569 27.6144 46.8497 27.9216 46.4707 27.9216H32.7452C32.3662 27.9216 32.0589 27.6144 32.0589 27.2353ZM32.7452 29.9804C32.3662 29.9804 32.0589 30.2877 32.0589 30.6667C32.0589 31.0457 32.3662 31.353 32.7452 31.353H56.7648C57.1438 31.353 57.4511 31.0457 57.4511 30.6667C57.4511 30.2877 57.1438 29.9804 56.7648 29.9804H32.7452ZM32.0589 34.0981C32.0589 33.7191 32.3662 33.4118 32.7452 33.4118H56.7648C57.1438 33.4118 57.4511 33.7191 57.4511 34.0981C57.4511 34.4771 57.1438 34.7844 56.7648 34.7844H32.7452C32.3662 34.7844 32.0589 34.4771 32.0589 34.0981ZM32.7452 36.8432C32.3662 36.8432 32.0589 37.1504 32.0589 37.5295C32.0589 37.9085 32.3662 38.2157 32.7452 38.2157H56.7648C57.1438 38.2157 57.4511 37.9085 57.4511 37.5295C57.4511 37.1504 57.1438 36.8432 56.7648 36.8432H32.7452ZM32.0589 40.9608C32.0589 40.5818 32.3662 40.2746 32.7452 40.2746H56.7648C57.1438 40.2746 57.4511 40.5818 57.4511 40.9608C57.4511 41.3398 57.1438 41.6471 56.7648 41.6471H32.7452C32.3662 41.6471 32.0589 41.3398 32.0589 40.9608ZM32.7452 43.7059C32.3662 43.7059 32.0589 44.0132 32.0589 44.3922C32.0589 44.7712 32.3662 45.0785 32.7452 45.0785H56.7648C57.1438 45.0785 57.4511 44.7712 57.4511 44.3922C57.4511 44.0132 57.1438 43.7059 56.7648 43.7059H32.7452ZM32.0589 47.8236C32.0589 47.4446 32.3662 47.1373 32.7452 47.1373H56.7648C57.1438 47.1373 57.4511 47.4446 57.4511 47.8236C57.4511 48.2026 57.1438 48.5098 56.7648 48.5098H32.7452C32.3662 48.5098 32.0589 48.2026 32.0589 47.8236ZM32.7452 50.5687C32.3662 50.5687 32.0589 50.8759 32.0589 51.2549C32.0589 51.634 32.3662 51.9412 32.7452 51.9412H56.7648C57.1438 51.9412 57.4511 51.634 57.4511 51.2549C57.4511 50.8759 57.1438 50.5687 56.7648 50.5687H32.7452Z" fill="#F8FAFD"/>
<defs>
<filter id="filter0_d_138_348" x="0" y="0" width="89" height="84" filterUnits="userSpaceOnUse" color-interpolation-filters="sRGB">
<feFlood flood-opacity="0" result="BackgroundImageFix"/>
<feColorMatrix in="SourceAlpha" type="matrix" values="0 0 0 0 0 0 0 0 0 0 0 0 0 0 0 0 0 0 127 0" result="hardAlpha"/>
<feOffset dy="5"/>
<feGaussianBlur stdDeviation="5"/>
<feColorMatrix type="matrix" values="0 0 0 0 0.117647 0 0 0 0 0.584314 0 0 0 0 0.607843 0 0 0 0.5 0"/>
<feBlend mode="normal" in2="BackgroundImageFix" result="effect1_dropShadow_138_348"/>
<feBlend mode="normal" in="SourceGraphic" in2="effect1_dropShadow_138_348" result="shape"/>
</filter>
<linearGradient id="paint0_linear_138_348" x1="79" y1="37" x2="10" y2="37" gradientUnits="userSpaceOnUse">
<stop stop-color="#1E959B"/>
<stop offset="1" stop-color="#AFDEDE"/>
</linearGradient>
</defs>
</svg>
